<?xml version="1.0" encoding="UTF-8" standalone="no"?>
<!DOCTYPE svg PUBLIC "-//W3C//DTD SVG 1.1//EN" "http://www.w3.org/Graphics/SVG/1.1/DTD/svg11.dtd">
<svg xmlns="http://www.w3.org/2000/svg" version="1.1" viewBox="0.00 0.00 822.00 188.00">
<path fill="#ffffff" d="
  M 52.98 33.23
  A 0.40 0.39 43.0 0 0 52.41 33.24
  C 37.92 48.98 29.43 69.23 28.84 90.62
  Q 27.83 127.89 53.94 155.79
  A 0.21 0.21 0.0 0 0 54.25 155.80
  L 69.97 140.46
  Q 70.22 140.23 69.98 139.98
  C 61.76 131.56 55.78 120.88 53.11 109.53
  Q 47.57 85.94 58.39 63.73
  A 0.45 0.45 0.0 0 1 59.11 63.60
  L 73.36 77.48
  Q 73.77 77.87 73.65 78.43
  C 73.20 80.48 72.32 82.37 71.95 84.45
  Q 69.13 100.60 75.58 113.92
  Q 83.63 130.56 101.40 137.62
  Q 101.91 137.82 101.52 138.20
  L 57.03 181.60
  A 1.17 1.17 0.0 0 1 55.53 181.72
  Q 29.28 162.75 17.49 133.27
  C 9.15 112.41 7.60 87.94 13.67 65.75
  Q 23.35 30.36 53.33 7.36
  Q 53.85 6.96 54.31 7.42
  L 116.97 68.63
  A 0.91 0.91 0.0 0 0 118.23 68.63
  L 180.67 7.64
  A 1.16 1.16 0.0 0 1 182.19 7.56
  Q 214.24 32.50 222.82 70.94
  Q 223.58 74.31 224.04 77.98
  C 224.43 81.13 224.93 84.17 224.94 87.36
  Q 224.97 94.91 224.81 102.86
  Q 224.73 106.79 223.19 114.67
  C 217.89 141.94 202.20 165.42 179.71 181.70
  Q 178.87 182.31 178.13 181.59
  L 133.50 137.98
  A 0.18 0.17 57.6 0 1 133.56 137.69
  C 157.45 128.83 170.04 102.52 161.52 78.54
  A 0.91 0.91 0.0 0 1 161.74 77.58
  L 176.13 63.65
  Q 176.53 63.26 176.77 63.76
  Q 183.49 77.22 183.92 91.34
  Q 184.75 119.24 165.37 139.88
  Q 165.03 140.25 165.39 140.60
  L 180.58 155.47
  Q 181.08 155.96 181.56 155.45
  Q 203.09 132.53 206.06 102.02
  Q 207.01 92.21 205.77 82.55
  Q 202.19 54.62 183.03 33.47
  A 0.71 0.69 -42.8 0 0 182.02 33.44
  L 117.94 96.10
  Q 117.60 96.43 117.26 96.10
  L 52.98 33.23
  Z"
/>
<path fill="#ffffff" d="
  M 382.52 161.99
  L 367.14 162.00
  A 0.30 0.30 0.0 0 1 366.86 161.82
  L 325.57 66.81
  A 0.30 0.30 0.0 0 0 324.99 66.93
  L 325.00 161.69
  A 0.30 0.30 0.0 0 1 324.70 161.99
  L 308.30 161.99
  A 0.30 0.30 0.0 0 1 308.00 161.69
  L 308.00 38.31
  A 0.30 0.30 0.0 0 1 308.30 38.01
  L 331.09 38.00
  A 0.30 0.30 0.0 0 1 331.37 38.18
  L 374.73 138.24
  A 0.30 0.30 0.0 0 0 375.28 138.24
  L 418.98 38.17
  A 0.30 0.30 0.0 0 1 419.26 37.99
  L 441.70 38.02
  A 0.30 0.30 0.0 0 1 442.00 38.32
  L 442.00 161.70
  A 0.30 0.30 0.0 0 1 441.70 162.00
  L 425.29 161.98
  A 0.30 0.30 0.0 0 1 424.99 161.68
  L 425.01 66.89
  A 0.30 0.30 0.0 0 0 424.43 66.77
  L 382.80 161.81
  A 0.30 0.30 0.0 0 1 382.52 161.99
  Z"
/>
<path fill="#ffffff" d="
  M 747.04 124.96
  Q 747.10 128.27 748.00 131.41
  C 751.98 145.23 763.77 152.35 777.73 150.03
  C 787.08 148.47 793.01 142.40 796.02 133.58
  Q 796.21 133.02 796.77 133.22
  L 809.93 137.88
  Q 810.51 138.09 810.31 138.67
  C 804.29 155.70 789.43 165.45 771.72 164.92
  C 748.72 164.23 732.85 148.55 730.39 126.13
  C 728.58 109.67 733.60 93.52 746.58 83.37
  Q 760.35 72.61 778.84 75.75
  C 803.04 79.84 812.51 101.28 810.74 123.79
  Q 810.71 124.25 810.24 124.25
  L 747.74 124.25
  Q 747.03 124.25 747.04 124.96
  Z
  M 747.93 111.08
  L 793.79 110.92
  A 0.11 0.11 0.0 0 0 793.90 110.81
  L 793.90 110.75
  A 22.47 21.31 -0.2 0 0 771.35 89.52
  L 770.21 89.52
  A 22.47 21.31 -0.2 0 0 747.82 110.91
  L 747.82 110.97
  A 0.11 0.11 0.0 0 0 747.93 111.08
  Z"
/>
<path fill="#ffffff" d="
  M 530.84 149.77
  C 523.99 161.32 511.62 165.52 498.70 163.50
  C 482.56 160.97 471.13 149.72 467.04 134.38
  Q 462.42 117.12 468.17 102.05
  C 474.40 85.75 488.38 75.85 505.79 76.06
  C 515.75 76.18 525.39 79.90 530.41 88.81
  Q 530.82 89.55 530.82 88.70
  L 530.84 78.58
  Q 530.84 78.00 531.42 78.00
  L 546.72 78.00
  Q 547.25 78.00 547.25 78.53
  Q 547.24 110.84 547.27 148.59
  C 547.27 152.91 547.63 157.11 548.06 161.38
  A 0.57 0.56 87.2 0 1 547.50 162.00
  L 532.55 162.00
  Q 532.07 162.00 532.00 161.53
  Q 531.14 155.83 531.25 149.88
  Q 531.27 149.04 530.84 149.77
  Z
  M 502.08 90.72
  C 479.37 94.37 476.41 127.68 489.26 142.24
  C 497.55 151.64 513.51 152.53 522.59 143.15
  Q 528.09 137.46 530.00 128.79
  C 534.20 109.72 525.65 86.93 502.08 90.72
  Z"
/>
<path fill="#ffffff" d="
  M 567.73 92.59
  L 567.74 78.33
  A 0.34 0.34 0.0 0 1 568.08 77.99
  L 633.52 77.99
  A 0.34 0.34 0.0 0 1 633.86 78.33
  L 633.88 92.23
  A 0.34 0.34 0.0 0 1 633.80 92.45
  L 588.03 146.52
  A 0.34 0.34 0.0 0 0 588.29 147.08
  L 634.41 147.08
  A 0.34 0.34 0.0 0 1 634.75 147.42
  L 634.75 161.67
  A 0.34 0.34 0.0 0 1 634.41 162.01
  L 567.34 162.01
  A 0.34 0.34 0.0 0 1 567.00 161.67
  L 567.01 147.71
  A 0.34 0.34 0.0 0 1 567.09 147.50
  L 612.81 93.48
  A 0.34 0.34 0.0 0 0 612.55 92.92
  L 568.07 92.93
  A 0.34 0.34 0.0 0 1 567.73 92.59
  Z"
/>
<path fill="#ffffff" d="
  M 649.73 92.59
  L 649.73 78.33
  A 0.34 0.34 0.0 0 1 650.07 77.99
  L 715.52 77.99
  A 0.34 0.34 0.0 0 1 715.86 78.33
  L 715.87 92.23
  A 0.34 0.34 0.0 0 1 715.79 92.45
  L 670.03 146.52
  A 0.34 0.34 0.0 0 0 670.29 147.08
  L 716.41 147.08
  A 0.34 0.34 0.0 0 1 716.75 147.42
  L 716.75 161.67
  A 0.34 0.34 0.0 0 1 716.41 162.01
  L 649.34 162.01
  A 0.34 0.34 0.0 0 1 649.00 161.67
  L 649.01 147.70
  A 0.34 0.34 0.0 0 1 649.09 147.49
  L 694.81 93.48
  A 0.34 0.34 0.0 0 0 694.55 92.92
  L 650.07 92.93
  A 0.34 0.34 0.0 0 1 649.73 92.59
  Z"
/>
</svg>
