<?xml version="1.0" encoding="UTF-8"?>
<svg width="238px" height="238px" viewBox="0 0 238 238" version="1.1" xmlns="http://www.w3.org/2000/svg" xmlns:xlink="http://www.w3.org/1999/xlink">
    <defs>
        <linearGradient x1="50%" y1="0%" x2="50%" y2="100%" id="linearGradient-1">
            <stop stop-color="#3A86F5" offset="0%"></stop>
            <stop stop-color="#3ACCF5" offset="100%"></stop>
        </linearGradient>
    </defs>
    <g  stroke="none" stroke-width="1" fill="none" fill-rule="evenodd">
        <g id="logo-design-D" transform="translate(-1504.000000, -400.000000)">
            <g id="7" transform="translate(1504.000000, 400.000000)">
                <circle  fill="url(#linearGradient-1)" cx="119" cy="119" r="119"></circle>
                <g  transform="translate(52.000000, 19.000000)" fill="#FFFFFF" fill-rule="nonzero">
                    <path d="M67,0 L134,100 L67,200 L0,100 L67,0 Z M111.175824,116.675262 L67,138.653284 L22.8241759,116.675262 L67,182.609328 L111.175824,116.675262 Z M70.8593156,32 L63.7072243,32 L63.7072243,40.9208791 C57.4220532,41.356044 52.3288973,42.9879121 48.2110266,45.9252747 C42.6844106,49.732967 39.9752852,55.1725275 39.9752852,62.3527473 C39.9752852,70.4032967 43.6596958,76.4956044 51.2452471,80.6296703 L63.7072243,85.1989011 L63.7072243,110.656044 C60.3479087,110.220879 57.7471483,109.132967 55.904943,107.392308 C53.4125475,104.998901 52.0038023,100.864835 51.5703422,95.2076923 L39,95.2076923 C39.6501901,104.128571 42.2509506,110.764835 46.8022814,115.116484 C50.7034221,118.815385 56.338403,120.882418 63.7072243,121.426374 L63.7072243,131 L70.8593156,131 L70.8593156,121.426374 C77.4695817,120.991209 82.8878327,119.359341 87.2224335,116.530769 C93.0741445,112.614286 96,106.848352 96,99.1241758 C96,91.1824176 92.2072243,85.0901099 84.730038,80.8472527 C84.0798479,80.4120879 79.4201521,78.6714286 70.8593156,75.5164835 L70.8593156,51.5824176 C73.5684411,51.9087912 75.7357414,52.6703297 77.3612167,53.867033 C79.9619772,55.7164835 81.5874525,58.8714286 82.2376426,63.4406593 L94.5912548,63.4406593 C93.5076046,55.4989011 90.7984791,49.732967 86.3555133,46.2516484 C82.5627376,43.2054945 77.3612167,41.356044 70.8593156,40.9208791 L70.8593156,32 Z M70.8593156,87.8098901 C71.2927757,87.9186813 71.6178707,88.0274725 72.0513308,88.2450549 C79.5285171,90.856044 83.3212928,94.6637363 83.3212928,99.5593407 C83.3212928,103.149451 81.8041825,105.978022 78.769962,107.936264 C76.6026616,109.350549 73.8935361,110.220879 70.8593156,110.656044 L70.8593156,87.8098901 Z M63.7072243,51.4736264 L63.7072243,72.7967033 C56.338403,69.9681319 52.6539924,66.4868132 52.6539924,62.3527473 C52.6539924,58.3274725 54.0627376,55.3901099 56.9885932,53.6494505 C58.6140684,52.5615385 60.8897338,51.8 63.7072243,51.4736264 Z" ></path>
                </g>
            </g>
        </g>
    </g>
</svg>